<svg width="26" height="24" viewBox="0 0 26 24" fill="none" xmlns="http://www.w3.org/2000/svg">
<path fill-rule="evenodd" clip-rule="evenodd" d="M7.42927 9.02743L7.92953 10.414C7.92953 10.414 13.5299 7.00205 15.5315 5.79218C18.1722 3.54916 15.8789 -0.0254078 13.3777 0.0013385C12.7724 -0.0157685 12.1741 0.131388 11.6492 0.426494C11.1242 0.7216 10.693 1.15313 10.4035 1.67324C9.44477 3.18205 10.3338 5.34431 11.1815 5.76386C11.2314 5.73316 11.4337 5.59184 11.6637 5.43105C11.9446 5.23481 12.2669 5.00958 12.4045 4.92109C11.1257 4.16013 10.8496 1.65856 13.2661 1.41417C15.1701 1.346 15.7261 3.83393 14.6559 4.70344C14.3085 4.90902 7.42927 9.02743 7.42927 9.02743ZM14.0727 7.51951L15.4207 6.74492C15.4207 6.74492 20.8683 10.7139 21.6468 11.1219C21.9144 11.2879 22.2213 11.3836 22.5377 11.3997C22.8542 11.4157 23.1696 11.3516 23.4533 11.2135C23.737 11.0755 23.9795 10.8681 24.1573 10.6115C24.3351 10.3549 24.4422 10.0578 24.4682 9.7489C24.5792 7.19332 21.0216 7.26149 20.6881 9.2596C20.4171 9.07604 20.2538 8.95372 20.0905 8.83139L20.0905 8.83137L20.0905 8.83136C19.9272 8.70905 19.764 8.58673 19.493 8.40319C20.2157 6.24198 22.9116 5.94305 24.3014 6.66311C24.8636 6.9521 25.3242 7.39927 25.624 7.94689C25.9237 8.49452 26.0487 9.11745 25.9829 9.73526C25.6773 12.5352 22.8419 13.6229 21.0355 12.4539C20.1042 11.8283 14.0727 7.51951 14.0727 7.51951ZM19.3678 12.3579L18.1727 11.4879C18.1727 11.4879 15.5599 18.6648 15.281 19.4279C14.9486 20.964 15.9213 23.4765 18.659 23.4241C19.4468 23.365 20.1926 23.0532 20.7806 22.537C21.3686 22.0209 21.766 21.3293 21.9109 20.5696C21.9771 19.6995 21.7023 18.8374 21.1422 18.1583C20.5822 17.4792 19.7789 17.034 18.8954 16.9132C18.8508 17.024 18.8129 17.115 18.777 17.2012L18.7767 17.2019L18.7766 17.202L18.7766 17.202C18.6674 17.4642 18.5762 17.6832 18.3673 18.2862C21.119 18.3407 21.105 21.9022 18.5341 22.0516C18.2406 22.0513 17.9512 21.9854 17.6878 21.8589C17.4244 21.7324 17.194 21.5487 17.0143 21.3218C16.8347 21.0949 16.7104 20.8308 16.6511 20.5497C16.5917 20.2686 16.5988 19.978 16.6719 19.7001C16.769 19.3854 19.3678 12.3579 19.3678 12.3579ZM14.7254 18.6229L15.2675 17.102C15.2675 17.102 7.63814 17.1156 6.52771 17.1156C3.74816 17.2378 2.9841 19.7934 3.41465 21.3158C5.08217 25.7736 10.9748 23.2038 9.83541 19.5218C9.3491 19.5081 8.55662 19.4945 8.33411 19.4945C8.7786 20.7453 8.12553 22.145 6.6387 22.1859C6.17509 22.1863 5.72828 22.0161 5.38699 21.7092C5.04569 21.4023 4.83488 20.9811 4.79639 20.5292C4.75791 20.0773 4.89457 19.6278 5.17924 19.2698C5.46392 18.9119 5.87579 18.6718 6.33308 18.5972C6.83227 18.6108 14.7254 18.6229 14.7254 18.6229ZM9.00004 16.4497H7.40169C7.40169 16.4497 5.13686 9.34044 4.98298 8.89257C4.79878 8.53539 4.50171 8.24585 4.13588 8.06696C3.77005 7.88806 3.35498 7.82936 2.95232 7.89956C2.54967 7.96976 2.1809 8.16513 1.9008 8.45665C1.6207 8.74816 1.44421 9.12027 1.39754 9.5177C1.38041 9.8852 1.47658 10.2493 1.67357 10.5627C1.87057 10.876 2.15929 11.1243 2.5023 11.2752C2.84531 11.4262 3.22678 11.4728 3.59722 11.4091C3.96766 11.3454 4.30998 11.1743 4.57977 10.918C4.62791 11.0892 4.66981 11.241 4.71495 11.4046C4.78747 11.6674 4.86837 11.9606 4.99692 12.4131C2.31602 13.8265 0.411508 12.0597 0.0640633 10.1837C-0.241559 8.4982 0.578261 7.41051 1.84311 6.63592C2.27282 6.43236 2.7424 6.32193 3.21975 6.31217C3.6971 6.30241 4.17099 6.39355 4.60902 6.57937C5.04706 6.76518 5.43892 7.0413 5.75784 7.38884C6.07677 7.73638 6.31523 8.14716 6.45694 8.59312C6.58187 9.01424 9.00004 16.4497 9.00004 16.4497Z" fill="#FBA919"/>
</svg>
